<svg aria-hidden="true" style="position: absolute; width: 0; height: 0; overflow: hidden;" version="1.1" xmlns="http://www.w3.org/2000/svg" xmlns:xlink="http://www.w3.org/1999/xlink">
<defs>
<symbol id="icon-Vector" viewBox="0 0 32 32">
<path fill="#f3cd03" style="fill: var(--color1, #f3cd03)" d="M30.699 11.725c-0.097-0.281-0.275-0.527-0.512-0.709s-0.524-0.292-0.824-0.315l-8.774-0.687-3.797-8.276c-0.121-0.267-0.318-0.493-0.566-0.652s-0.539-0.244-0.835-0.244c-0.296-0-0.587 0.084-0.836 0.243s-0.446 0.385-0.567 0.651l-3.797 8.277-8.774 0.687c-0.295 0.023-0.577 0.129-0.812 0.306s-0.414 0.416-0.514 0.69c-0.101 0.274-0.119 0.57-0.053 0.854s0.214 0.543 0.426 0.746l6.484 6.224-2.293 9.778c-0.070 0.296-0.047 0.606 0.064 0.889s0.307 0.527 0.56 0.7c0.254 0.173 0.555 0.266 0.863 0.268s0.611-0.087 0.867-0.256l8.38-5.501 8.38 5.501c0.262 0.171 0.571 0.26 0.886 0.253s0.619-0.108 0.874-0.291c0.254-0.183 0.446-0.437 0.548-0.73s0.112-0.61 0.027-0.908l-2.815-9.699 6.981-6.186c0.457-0.406 0.625-1.040 0.428-1.614z"></path>
</symbol>
<symbol id="icon-Vector-1" viewBox="0 0 32 32">
<path fill="#f3cd03" style="fill: var(--color1, #f3cd03)" d="M8.17 19.52l-2.293 9.778c-0.071 0.296-0.050 0.606 0.061 0.89s0.306 0.529 0.56 0.701c0.254 0.173 0.555 0.266 0.864 0.268s0.611-0.088 0.867-0.258l8.38-5.501 8.38 5.501c0.262 0.171 0.571 0.26 0.886 0.253s0.62-0.108 0.874-0.291c0.254-0.182 0.446-0.437 0.549-0.73s0.112-0.61 0.026-0.908l-2.815-9.699 6.981-6.186c0.224-0.198 0.383-0.457 0.459-0.743s0.065-0.589-0.032-0.87c-0.097-0.281-0.275-0.527-0.512-0.709s-0.524-0.291-0.824-0.315l-8.774-0.688-3.797-8.276c-0.121-0.266-0.318-0.493-0.567-0.652s-0.539-0.243-0.835-0.243c-0.296 0-0.587 0.085-0.835 0.243s-0.446 0.385-0.567 0.652l-3.797 8.276-8.774 0.687c-0.295 0.023-0.577 0.129-0.812 0.306s-0.414 0.416-0.514 0.69c-0.101 0.274-0.119 0.57-0.053 0.854s0.214 0.543 0.426 0.746l6.485 6.224zM12.561 12.964c0.275-0.021 0.539-0.115 0.764-0.271s0.404-0.369 0.517-0.617l2.769-6.033 2.769 6.033c0.113 0.248 0.291 0.461 0.517 0.617s0.489 0.25 0.764 0.271l6.113 0.477-5.034 4.462c-0.437 0.388-0.611 0.985-0.451 1.543l1.928 6.645-5.75-3.775c-0.252-0.167-0.549-0.256-0.853-0.256s-0.601 0.089-0.853 0.256l-6.008 3.945 1.616-6.889c0.059-0.253 0.051-0.518-0.023-0.767s-0.213-0.476-0.402-0.658l-4.676-4.489 6.295-0.494z"></path>
</symbol>
</defs>
</svg>
