<svg width="155" height="100" viewBox="0 0 155 100" fill="none" xmlns="http://www.w3.org/2000/svg">
<path d="M58.824 72V60.8H63.016C63.9653 60.8 64.7813 60.9547 65.464 61.264C66.1467 61.5627 66.6693 62 67.032 62.576C67.4053 63.1413 67.592 63.8293 67.592 64.64C67.592 65.4293 67.4053 66.112 67.032 66.688C66.6693 67.2533 66.1467 67.6907 65.464 68C64.7813 68.3093 63.9653 68.464 63.016 68.464H59.48L60.008 67.904V72H58.824ZM60.008 68L59.48 67.424H62.984C64.104 67.424 64.952 67.184 65.528 66.704C66.1147 66.2133 66.408 65.5253 66.408 64.64C66.408 63.744 66.1147 63.0507 65.528 62.56C64.952 62.0693 64.104 61.824 62.984 61.824H59.48L60.008 61.264V68ZM73.5333 72.08C72.6586 72.08 71.8906 71.8987 71.2293 71.536C70.5679 71.1627 70.0506 70.656 69.6773 70.016C69.3039 69.3653 69.1173 68.624 69.1173 67.792C69.1173 66.96 69.2933 66.224 69.6453 65.584C70.0079 64.944 70.4986 64.4427 71.1173 64.08C71.7466 63.7067 72.4506 63.52 73.2293 63.52C74.0186 63.52 74.7173 63.7013 75.3253 64.064C75.9439 64.416 76.4293 64.9173 76.7813 65.568C77.1333 66.208 77.3093 66.9493 77.3093 67.792C77.3093 67.8453 77.3039 67.904 77.2933 67.968C77.2933 68.0213 77.2933 68.08 77.2933 68.144H69.9813V67.296H76.6853L76.2373 67.632C76.2373 67.024 76.1039 66.4853 75.8373 66.016C75.5813 65.536 75.2293 65.1627 74.7813 64.896C74.3333 64.6293 73.8159 64.496 73.2293 64.496C72.6533 64.496 72.1359 64.6293 71.6773 64.896C71.2186 65.1627 70.8613 65.536 70.6053 66.016C70.3493 66.496 70.2213 67.0453 70.2213 67.664V67.84C70.2213 68.48 70.3599 69.0453 70.6373 69.536C70.9253 70.016 71.3199 70.3947 71.8213 70.672C72.3333 70.9387 72.9146 71.072 73.5653 71.072C74.0773 71.072 74.5519 70.9813 74.9893 70.8C75.4373 70.6187 75.8213 70.3413 76.1413 69.968L76.7813 70.704C76.4079 71.152 75.9386 71.4933 75.3733 71.728C74.8186 71.9627 74.2053 72.08 73.5333 72.08ZM79.7215 72V63.6H80.8095V65.888L80.6975 65.488C80.9322 64.848 81.3268 64.3627 81.8815 64.032C82.4362 63.6907 83.1242 63.52 83.9455 63.52V64.624C83.9028 64.624 83.8602 64.624 83.8175 64.624C83.7748 64.6133 83.7322 64.608 83.6895 64.608C82.8042 64.608 82.1108 64.88 81.6095 65.424C81.1082 65.9573 80.8575 66.72 80.8575 67.712V72H79.7215ZM88.5469 73.6L93.8269 58.528H94.8669L89.5869 73.6H88.5469ZM110.774 63.52C111.456 63.52 112.048 63.6533 112.55 63.92C113.062 64.176 113.456 64.5707 113.734 65.104C114.022 65.6373 114.166 66.3093 114.166 67.12V72H113.03V67.232C113.03 66.3467 112.816 65.68 112.39 65.232C111.974 64.7733 111.382 64.544 110.614 64.544C110.038 64.544 109.536 64.6667 109.11 64.912C108.694 65.1467 108.368 65.4933 108.134 65.952C107.91 66.4 107.798 66.944 107.798 67.584V72H106.662V67.232C106.662 66.3467 106.448 65.68 106.022 65.232C105.595 64.7733 104.998 64.544 104.23 64.544C103.664 64.544 103.168 64.6667 102.742 64.912C102.315 65.1467 101.984 65.4933 101.75 65.952C101.526 66.4 101.414 66.944 101.414 67.584V72H100.278V63.6H101.366V65.872L101.19 65.472C101.446 64.864 101.856 64.3893 102.422 64.048C102.998 63.696 103.675 63.52 104.454 63.52C105.275 63.52 105.974 63.728 106.55 64.144C107.126 64.5493 107.499 65.1627 107.67 65.984L107.222 65.808C107.467 65.1253 107.899 64.576 108.518 64.16C109.147 63.7333 109.899 63.52 110.774 63.52ZM120.771 72.08C119.96 72.08 119.229 71.8987 118.579 71.536C117.939 71.1627 117.432 70.656 117.059 70.016C116.685 69.3653 116.499 68.624 116.499 67.792C116.499 66.9493 116.685 66.208 117.059 65.568C117.432 64.928 117.939 64.4267 118.579 64.064C119.219 63.7013 119.949 63.52 120.771 63.52C121.603 63.52 122.339 63.7013 122.979 64.064C123.629 64.4267 124.136 64.928 124.499 65.568C124.872 66.208 125.059 66.9493 125.059 67.792C125.059 68.624 124.872 69.3653 124.499 70.016C124.136 70.656 123.629 71.1627 122.979 71.536C122.328 71.8987 121.592 72.08 120.771 72.08ZM120.771 71.072C121.379 71.072 121.917 70.9387 122.387 70.672C122.856 70.3947 123.224 70.0107 123.491 69.52C123.768 69.0187 123.907 68.4427 123.907 67.792C123.907 67.1307 123.768 66.5547 123.491 66.064C123.224 65.5733 122.856 65.1947 122.387 64.928C121.917 64.6507 121.384 64.512 120.787 64.512C120.189 64.512 119.656 64.6507 119.187 64.928C118.717 65.1947 118.344 65.5733 118.067 66.064C117.789 66.5547 117.651 67.1307 117.651 67.792C117.651 68.4427 117.789 69.0187 118.067 69.52C118.344 70.0107 118.717 70.3947 119.187 70.672C119.656 70.9387 120.184 71.072 120.771 71.072ZM131.766 63.52C132.448 63.52 133.046 63.6533 133.558 63.92C134.08 64.176 134.486 64.5707 134.774 65.104C135.072 65.6373 135.222 66.3093 135.222 67.12V72H134.086V67.232C134.086 66.3467 133.862 65.68 133.414 65.232C132.976 64.7733 132.358 64.544 131.558 64.544C130.96 64.544 130.438 64.6667 129.99 64.912C129.552 65.1467 129.211 65.4933 128.966 65.952C128.731 66.4 128.614 66.944 128.614 67.584V72H127.478V63.6H128.566V65.904L128.39 65.472C128.656 64.864 129.083 64.3893 129.67 64.048C130.256 63.696 130.955 63.52 131.766 63.52ZM141.046 72.08C140.257 72.08 139.649 71.8667 139.222 71.44C138.796 71.0133 138.582 70.4107 138.582 69.632V61.744H139.718V69.568C139.718 70.0587 139.841 70.4373 140.086 70.704C140.342 70.9707 140.705 71.104 141.174 71.104C141.676 71.104 142.092 70.96 142.422 70.672L142.822 71.488C142.598 71.6907 142.326 71.84 142.006 71.936C141.697 72.032 141.377 72.08 141.046 72.08ZM137.078 64.544V63.6H142.278V64.544H137.078ZM149.278 63.52C149.961 63.52 150.558 63.6533 151.07 63.92C151.593 64.176 151.998 64.5707 152.286 65.104C152.585 65.6373 152.734 66.3093 152.734 67.12V72H151.598V67.232C151.598 66.3467 151.374 65.68 150.926 65.232C150.489 64.7733 149.87 64.544 149.07 64.544C148.473 64.544 147.95 64.6667 147.502 64.912C147.065 65.1467 146.724 65.4933 146.478 65.952C146.244 66.4 146.126 66.944 146.126 67.584V72H144.99V60.128H146.126V65.904L145.902 65.472C146.169 64.864 146.596 64.3893 147.182 64.048C147.769 63.696 148.468 63.52 149.278 63.52Z" fill="#E0E0E0"/>
<path d="M21.4524 77.912C17.7537 77.912 14.0804 77.4307 10.4324 76.468C6.83506 75.4547 3.74439 74.036 1.16039 72.212L6.02439 62.788C8.05106 64.2573 10.3817 65.4227 13.0164 66.284C15.7017 67.1453 18.4124 67.576 21.1484 67.576C24.2391 67.576 26.6711 66.968 28.4444 65.752C30.2177 64.536 31.1044 62.8387 31.1044 60.66C31.1044 59.292 30.7497 58.076 30.0404 57.012C29.3311 55.948 28.0644 55.1373 26.2404 54.58C24.4671 54.0227 21.9591 53.744 18.7164 53.744H5.11239L7.84839 23.8H40.3004V33.68H12.2564L18.6404 28.056L16.7404 49.412L10.3564 43.788H21.6044C26.8737 43.788 31.1044 44.5227 34.2964 45.992C37.5391 47.4107 39.8951 49.3613 41.3644 51.844C42.8337 54.3267 43.5684 57.1387 43.5684 60.28C43.5684 63.4213 42.7831 66.3347 41.2124 69.02C39.6417 71.6547 37.2097 73.808 33.9164 75.48C30.6737 77.1013 26.5191 77.912 21.4524 77.912Z" fill="white"/>
<path d="M63.648 47.88V25.32H66.048V47.88H63.648ZM64.512 45.288C63.168 45.288 61.88 45.112 60.648 44.76C59.416 44.392 58.424 43.92 57.672 43.344L58.992 40.416C59.712 40.928 60.56 41.352 61.536 41.688C62.528 42.008 63.528 42.168 64.536 42.168C65.304 42.168 65.92 42.096 66.384 41.952C66.864 41.792 67.216 41.576 67.44 41.304C67.664 41.032 67.776 40.72 67.776 40.368C67.776 39.92 67.6 39.568 67.248 39.312C66.896 39.04 66.432 38.824 65.856 38.664C65.28 38.488 64.64 38.328 63.936 38.184C63.248 38.024 62.552 37.832 61.848 37.608C61.16 37.384 60.528 37.096 59.952 36.744C59.376 36.392 58.904 35.928 58.536 35.352C58.184 34.776 58.008 34.04 58.008 33.144C58.008 32.184 58.264 31.312 58.776 30.528C59.304 29.728 60.088 29.096 61.128 28.632C62.184 28.152 63.504 27.912 65.088 27.912C66.144 27.912 67.184 28.04 68.208 28.296C69.232 28.536 70.136 28.904 70.92 29.4L69.72 32.352C68.936 31.904 68.152 31.576 67.368 31.368C66.584 31.144 65.816 31.032 65.064 31.032C64.312 31.032 63.696 31.12 63.216 31.296C62.736 31.472 62.392 31.704 62.184 31.992C61.976 32.264 61.872 32.584 61.872 32.952C61.872 33.384 62.048 33.736 62.4 34.008C62.752 34.264 63.216 34.472 63.792 34.632C64.368 34.792 65 34.952 65.688 35.112C66.392 35.272 67.088 35.456 67.776 35.664C68.48 35.872 69.12 36.152 69.696 36.504C70.272 36.856 70.736 37.32 71.088 37.896C71.456 38.472 71.64 39.2 71.64 40.08C71.64 41.024 71.376 41.888 70.848 42.672C70.32 43.456 69.528 44.088 68.472 44.568C67.432 45.048 66.112 45.288 64.512 45.288Z" fill="white"/>
</svg>
